<?xml version="1.0" encoding="UTF-8"?>
<svg id="Layer_1" data-name="Layer 1" xmlns="http://www.w3.org/2000/svg" viewBox="0 0 250 250">
  <defs>
    <style>
      .cls-1 {
        fill: #00ff40;
      }

      .cls-2 {
        fill: #fff;
      }
    </style>
  </defs>
  <rect class="cls-1" width="250" height="250" rx="15.06" ry="15.06"/>
  <g>
    <g id="Stoned_eyes" data-name="Stoned eyes">
      <ellipse class="cls-2" cx="167.85" cy="83.9" rx="38.71" ry="31.16"/>
      <ellipse class="cls-2" cx="87.6" cy="83.9" rx="37.78" ry="31.16"/>
      <g>
        <path d="M180.9,100c1.57,0,2.83-1.26,2.83-2.83s-1.26-2.83-2.83-2.83-2.83,1.26-2.83,2.83,1.26,2.83,2.83,2.83Z"/>
        <path d="M178.23,49.02c-14.53-3.79-31.02-2.87-42.6,7.55-3.77,3.34-6.66,7.57-8.39,12.29-1.26-3.5-3.13-6.76-5.56-9.59-10.97-12.97-29.88-14.59-45.23-10.26-15.67,4.46-30.59,18.01-30.88,35.33-.28,17.75,14.65,30.9,31.04,34.48,16.04,3.5,33.6-1.53,44.09-14.43,2.85-3.52,5.05-7.51,6.51-11.81.83,2.5,1.95,4.91,3.34,7.16,8.98,14.04,25.16,21.8,41.75,19.99,16.02-1.67,33.24-12.09,36.21-29.07,3.46-19.64-10.83-36.54-30.29-41.66ZM119.67,96.24c-7.27,12.35-21.35,18.89-35.44,17.93-14.06-.96-29.35-9.44-32.44-23.94-.73-3.42-.79-6.94-.14-10.38,23.83-2.26,47.75-3.48,71.77-3.66,1.06,6.94-.33,14.04-3.87,20.11l.12-.06ZM175.95,113.48c-13.94,2.91-28.37-2.02-37.63-12.84-5.62-6.82-8.16-15.69-6.98-24.47,13.41,0,61.18,2.16,71.67,3.05.37,1.79.55,3.6.55,5.43-.08,15.45-13.68,26.03-27.72,28.86l.12-.06v.02Z"/>
        <path d="M104.04,94.34c-1.57,0-2.83,1.26-2.83,2.83s1.26,2.83,2.83,2.83,2.83-1.26,2.83-2.83-1.26-2.83-2.83-2.83Z"/>
      </g>
    </g>
    <g id="Grin_mouth" data-name="Grin mouth">
      <path d="M114.89,190.93c0,1.12.91,2.04,2.04,2.04h18.32c4.37.13,8.01-3.31,8.14-7.68,0-.15,0-.31,0-.46,0-1.12-.9-2.03-2.02-2.04h-.02c-1.11,0-2.02.9-2.04,2.01.15,2.11-1.45,3.95-3.56,4.09-.17.01-.34.01-.51,0h-18.32c-1.12,0-2.04.91-2.04,2.04Z"/>
      <path d="M137.28,199.07h-6.11c-1.12,0-2.04.91-2.04,2.04s.91,2.04,2.04,2.04h6.11c1.12,0,2.04-.91,2.04-2.04s-.91-2.04-2.04-2.04Z"/>
    </g>
  </g>
</svg>