<?xml version="1.0" encoding="UTF-8"?>
<svg id="Layer_1" data-name="Layer 1" xmlns="http://www.w3.org/2000/svg" viewBox="0 0 238.95 353">
  <defs>
    <style>
      .cls-1 {
        fill: #00ff40;
        stroke: #000;
        stroke-miterlimit: 10;
        stroke-width: 3px;
      }
    </style>
  </defs>
  <path id="Green_color" data-name="Green color" class="cls-1" d="M79.1,349.11c-4.83-3.1-12.38-9.14-16-19-1.93-5.25-2.2-10.11-2.43-13.95-.34-5.72.14-11.52,1.43-18.05,2.98-15.08,4.77-26.72,5-28,4.72-26.37,3.48-35.69,1-43-3.27-9.65-7.01-10.77-8-11-5.82-1.35-12.04,6.53-14,9-12.19,15.38-4.79,27.87-14,42-8.69,13.34-26.53,19.57-30,16-3.86-3.96,11.63-18.3,22-43,15.61-37.18,9.66-75.31,7-98-3.54-30.22-8.81-48.74-3.71-79.23.71-4.25,2.16-8.65,4.71-13.77C43.92,25.36,68.33,8.15,94.1,3.11c30.53-5.97,62.76,5.18,83,25,42.47,41.59-18.67,114.13,22.25,199.79,6.27,13.13,13.1,23.04,17.75,29.21,19.49,18.04,21.35,23.87,20,26-2.86,4.5-25.57,1.08-36-13-1.42-1.92-3.28-4.95-14-44-1.3-4.72-2.99-10.97-8-13-4.54-1.84-10.73.14-14.27,3.72-6.06,6.13-3.32,19.26,2.41,45.26,4.52,20.49,7.82,35.32,8.86,40.02,8.71,31.26,7.42,40.29,4,42-6.56,3.28-29.66-15.99-34-40-2.72-15.07,3.59-22.9-3-32-7.78-10.75-20.89-5.77-27-16-7.04-11.78,5.01-27.29-1.4-32.19-4.46-3.41-13.5,1.58-15.34,2.79-8.9,5.86-15.08,17.46-15.92,25.29-.83,7.67-1.56,13.29-1.02,22.91.51,9.08,1.67,17.06,3.68,27.2,7.09,35.9,11.3,44.42,7,48-1.81,1.51-5.51,2.53-14-1Z"/>
</svg>